<?xml version="1.0" encoding="iso-8859-1"?>
<!-- Uploaded to: SVG Repo, www.svgrepo.com, Generator: SVG Repo Mixer Tools -->
<svg fill="#000000" height="800px" width="800px" version="1.1" id="Layer_1" xmlns="http://www.w3.org/2000/svg" xmlns:xlink="http://www.w3.org/1999/xlink" 
	 viewBox="0 0 512.004 512.004" xml:space="preserve">
<g>
	<g>
		<path d="M512.004,194.723h-0.003c-0.002-18.72-7.789-35.974-21.367-47.338c-4.991-4.178-10.633-7.436-16.682-9.732
			c-1.007-2.487-2.021-4.972-3.081-7.423C430.435,36.708,361.351-17.137,310.181,4.99c-25.205,10.901-40.787,37.85-43.879,75.883
			c-2.15,26.441,1.831,57.484,11.257,89.13c-5.951,3.855-11.483,8.528-16.407,13.922c-16.995,2.146-32.773,9.584-44.358,21.17
			l-15.948,15.946c-12.014,12.012-19.19,27.875-21.271,44.381c-3.593,3.782-6.779,7.836-9.544,12.096
			c-31.645-9.423-62.683-13.405-89.122-11.252c-38.038,3.09-64.986,18.674-75.885,43.88c-11.649,26.942-2.886,59.239,24.679,90.939
			c23.602,27.144,59.315,51.916,100.561,69.749c2.451,1.061,4.938,2.076,7.425,3.083c2.296,6.049,5.555,11.69,9.732,16.68
			c11.364,13.579,28.618,21.367,47.341,21.367h109.22c0.005,0,0.005,0,0.008,0c13.61-0.002,26.143-3.993,36.302-11.264
			c4.438,1.06,9.021,1.621,13.692,1.621c16.16,0,31.69-6.629,43.73-18.667l81.698-81.696c13.199-13.202,19.93-30.905,18.464-48.572
			c-0.227-2.737-0.67-5.434-1.275-8.092c9.763-10.881,15.402-25.47,15.403-41.344V194.723z M137.797,423.107
			c-29.954-14.42-56.145-33.205-72.973-52.559c-14.505-16.683-21.05-32.749-17.081-41.93c6.703-15.504,49.87-23.944,108.172-6.759
			L137.797,423.107z M328.653,47.708c18.205-7.883,62.641,23.492,94.498,90.052l-101.254,18.123
			C304.71,97.582,313.149,54.413,328.653,47.708z M194.76,465.423c-4.978,0-9.114-1.666-11.649-4.694
			c-2.533-3.027-3.446-7.392-2.567-12.293l20.87-116.633l95.37,133.62H194.76z M446.499,369.048l-81.696,81.695
			c-3.295,3.297-7.039,5.037-10.822,5.037c-4.449,0-8.652-2.454-11.834-6.911L230.555,292.519
			c-3.231-4.527-4.854-10.25-5.008-16.077c0.009-0.447-0.008-0.894-0.025-1.339c0.102-7.893,2.913-15.836,8.232-21.153
			l15.948-15.946c5.133-5.135,13.218-8.199,21.626-8.199c6.41,0,12.428,1.776,16.944,4.998l156.345,111.594
			c4.096,2.923,6.536,6.77,6.874,10.835C451.828,361.294,450.055,365.491,446.499,369.048z M465.46,303.947
			c0,0.048-0.006,0.093-0.006,0.14L323.621,202.852l124.852-22.344c4.895-0.883,9.263,0.034,12.291,2.569
			c3.028,2.533,4.696,6.671,4.696,11.648V303.947z"/>
	</g>
</g>
</svg>